<?xml version="1.0" encoding="UTF-8"?>
<svg width="180" height="180" viewBox="0 0 180 180" fill="none" xmlns="http://www.w3.org/2000/svg">
  <!-- Background circle for better visibility -->
  <circle cx="90" cy="90" r="85" fill="#f8f9fa" stroke="#e9ecef" stroke-width="5"/>
  
  <!-- Main ghost body - enlarged to break boundaries -->
  <path d="M90 11.25c-37.1 0-67.5 30.4-67.5 67.5v75.9l12.65 21.1c2.55 4.2 8.4 2.55 11-1.65L57 159c1.65-2.55 5.1-2.55 6.75 0L75 172.5c1.65 2.55 5.1 2.55 6.75 0L90 159c1.65-2.55 5.1-2.55 6.75 0L105 172.5c1.65 2.55 5.1 2.55 6.75 0L121.5 159c1.65-2.55 5.1-1.65 10.1 1.65L144.8 173.4c2.55 4.2 8.4 2.55 11-1.65L157.5 155V78.75c0-37.1-30.4-67.5-67.5-67.5Z" fill="#6366f1"/>
  
  <!-- Code bracket eyes - adjusted position -->
  <text x="56.25" y="112.5" font-family="monospace" font-size="56.25" fill="#f8f9fa" text-anchor="middle">&lt;</text>
  <text x="123.75" y="112.5" font-family="monospace" font-size="56.25" fill="#f8f9fa" text-anchor="middle">&gt;</text>
  
  <!-- Binary dots - adjusted position and size -->
  <circle cx="67.5" cy="129.375" r="5.625" fill="#f8f9fa" opacity="0.8"/>
  <circle cx="90" cy="129.375" r="5.625" fill="#f8f9fa" opacity="0.6"/>
  <circle cx="112.5" cy="129.375" r="5.625" fill="#f8f9fa" opacity="0.8"/>
</svg>