<?xml version="1.0" encoding="UTF-8"?>
<svg width="32" height="32" viewBox="0 0 32 32" fill="none" xmlns="http://www.w3.org/2000/svg">
  <!-- Background circle for better visibility -->
  <circle cx="16" cy="16" r="15" fill="#f8f9fa" stroke="#e9ecef" stroke-width="1"/>
  
  <!-- Main ghost body - enlarged to fill more space -->
  <path d="M16 2c-6.6 0-12 5.4-12 12v13.5l2.25 3.75c0.45 0.75 1.5 0.45 1.95-0.3L10.5 28.2c0.3-0.45 0.9-0.45 1.2 0L13.5 30.45c0.3 0.45 0.9 0.45 1.2 0L16 28.2c0.3-0.45 0.9-0.45 1.2 0L18.5 30.45c0.3 0.45 0.9 0.45 1.2 0L21.5 28.2c0.3-0.45 0.9-0.3 1.8 0.3L25.75 30.75c0.45 0.75 1.5 0.45 1.95-0.3L28 27.5V14c0-6.6-5.4-12-12-12Z" fill="#6366f1"/>
  
  <!-- Code bracket eyes - adjusted position -->
  <text x="10" y="20" font-family="monospace" font-size="10" fill="#f8f9fa" text-anchor="middle">&lt;</text>
  <text x="22" y="20" font-family="monospace" font-size="10" fill="#f8f9fa" text-anchor="middle">&gt;</text>
  
  <!-- Binary dots - adjusted position and size -->
  <circle cx="12" cy="23" r="1" fill="#f8f9fa" opacity="0.8"/>
  <circle cx="16" cy="23" r="1" fill="#f8f9fa" opacity="0.6"/>
  <circle cx="20" cy="23" r="1" fill="#f8f9fa" opacity="0.8"/>
</svg>