<?xml version="1.0" encoding="UTF-8"?>
<svg width="128" height="128" viewBox="0 0 32 32" fill="none" xmlns="http://www.w3.org/2000/svg">
  <!-- Main ghost body -->
  <path d="M16 6c-4.4 0-8 3.6-8 8v9l1.5 2.5c0.3 0.5 1 0.3 1.3-0.2L12 23.8c0.2-0.3 0.6-0.3 0.8 0L14 25.3c0.2 0.3 0.6 0.3 0.8 0L16 23.8c0.2-0.3 0.6-0.3 0.8 0L18 25.3c0.2 0.3 0.6 0.3 0.8 0L20 23.8c0.2-0.3 0.6-0.2 1.2 0.2L22.5 25.5c0.3 0.5 1 0.3 1.3-0.2L24 23V14c0-4.4-3.6-8-8-8Z" fill="#6366f1"/>
  
  <!-- Code bracket eyes -->
  <text x="12" y="18" font-family="monospace" font-size="8" fill="#f8f9fa" text-anchor="middle">&lt;</text>
  <text x="20" y="18" font-family="monospace" font-size="8" fill="#f8f9fa" text-anchor="middle">&gt;</text>
  
  <!-- Binary dots for tech aesthetic -->
  <circle cx="14" cy="20" r="0.8" fill="#f8f9fa" opacity="0.8"/>
  <circle cx="16" cy="20" r="0.8" fill="#f8f9fa" opacity="0.6"/>
  <circle cx="18" cy="20" r="0.8" fill="#f8f9fa" opacity="0.8"/>
</svg>