<?xml version="1.0" encoding="UTF-8"?>
<svg width="128" height="128" viewBox="0 0 128 128" fill="none" xmlns="http://www.w3.org/2000/svg">
  <!-- Main ghost body - clean design without background -->
  <path d="M64 16c-22 0-40 18-40 40v45l7.5 12.5c1.5 2.5 5 1.5 6.5-1L48 100c1-1.5 3-1.5 4 0L60 110c1 1.5 3 1.5 4 0L64 100c1-1.5 3-1.5 4 0L68 110c1 1.5 3 1.5 4 0L80 100c1-1.5 3-1 6 1L94 110c1.5 2.5 5 1.5 6.5-1L104 92V56c0-22-18-40-40-40Z" fill="#6366f1"/>
  
  <!-- Code bracket eyes -->
  <text x="44" y="72" font-family="monospace" font-size="32" fill="#f8f9fa" text-anchor="middle">&lt;</text>
  <text x="84" y="72" font-family="monospace" font-size="32" fill="#f8f9fa" text-anchor="middle">&gt;</text>
  
  <!-- Binary dots -->
  <circle cx="52" cy="84" r="3.2" fill="#f8f9fa" opacity="0.8"/>
  <circle cx="64" cy="84" r="3.2" fill="#f8f9fa" opacity="0.6"/>
  <circle cx="76" cy="84" r="3.2" fill="#f8f9fa" opacity="0.8"/>
</svg>